<?xml version="1.0" standalone="no"?>
<!DOCTYPE svg PUBLIC "-//W3C//DTD SVG 20010904//EN"
 "http://www.w3.org/TR/2001/REC-SVG-20010904/DTD/svg10.dtd">
<svg version="1.0" xmlns="http://www.w3.org/2000/svg"
 width="58.000000pt" height="54.000000pt" viewBox="0 0 58.000000 54.000000"
 preserveAspectRatio="xMidYMid meet">

<g transform="translate(0.000000,54.000000) scale(0.100000,-0.100000)"
fill="#000000" stroke="none">
<path d="M119 503 c-15 -2 -37 -15 -50 -29 -23 -25 -24 -30 -24 -206 l0 -180
27 -23 c16 -13 48 -27 73 -31 68 -10 336 0 361 14 35 19 44 65 44 228 0 232 3
228 -235 230 -93 1 -182 0 -196 -3z m375 -65 c13 -18 16 -53 16 -170 0 -200
14 -188 -219 -188 -229 0 -233 3 -138 98 l66 66 26 -24 26 -24 68 68 c63 62
70 66 76 47 3 -11 13 -21 21 -21 10 0 14 14 14 55 l0 55 -60 0 c-47 0 -60 -3
-60 -15 0 -9 9 -15 25 -15 14 0 25 -3 25 -7 0 -4 -23 -31 -52 -60 l-52 -53
-28 27 -27 26 -65 -69 -65 -69 -1 136 c0 92 4 139 12 147 8 8 66 12 194 12
178 0 183 -1 198 -22z"/>
</g>
</svg>
